<mxfile host="app.diagrams.net" modified="2022-07-20T19:29:00.969Z" agent="5.0 (Windows NT 10.0; Win64; x64) AppleWebKit/537.36 (KHTML, like Gecko) Chrome/103.0.0.0 Safari/537.36" etag="lEPTcUUwY5k4ksTNDOkZ" version="20.1.3" type="github">
  <diagram id="pC7a0RPuk1uz6vx2moi2" name="PÃ¡gina-1">
    <mxGraphModel dx="1102" dy="614" grid="1" gridSize="10" guides="1" tooltips="1" connect="1" arrows="1" fold="1" page="1" pageScale="1" pageWidth="827" pageHeight="1169" math="0" shadow="0">
      <root>
        <mxCell id="0" />
        <mxCell id="1" parent="0" />
        <mxCell id="r4Jw3N0_tGz9ioQyAZuH-12" style="edgeStyle=orthogonalEdgeStyle;rounded=0;orthogonalLoop=1;jettySize=auto;html=1;" edge="1" parent="1" source="r4Jw3N0_tGz9ioQyAZuH-1" target="r4Jw3N0_tGz9ioQyAZuH-2">
          <mxGeometry relative="1" as="geometry" />
        </mxCell>
        <mxCell id="r4Jw3N0_tGz9ioQyAZuH-1" value="1" style="rounded=1;whiteSpace=wrap;html=1;" vertex="1" parent="1">
          <mxGeometry x="20" y="110" width="120" height="60" as="geometry" />
        </mxCell>
        <mxCell id="r4Jw3N0_tGz9ioQyAZuH-13" style="edgeStyle=orthogonalEdgeStyle;rounded=0;orthogonalLoop=1;jettySize=auto;html=1;entryX=0;entryY=0.5;entryDx=0;entryDy=0;" edge="1" parent="1" source="r4Jw3N0_tGz9ioQyAZuH-2" target="r4Jw3N0_tGz9ioQyAZuH-7">
          <mxGeometry relative="1" as="geometry" />
        </mxCell>
        <mxCell id="r4Jw3N0_tGz9ioQyAZuH-16" style="edgeStyle=orthogonalEdgeStyle;rounded=0;orthogonalLoop=1;jettySize=auto;html=1;" edge="1" parent="1" source="r4Jw3N0_tGz9ioQyAZuH-2" target="r4Jw3N0_tGz9ioQyAZuH-6">
          <mxGeometry relative="1" as="geometry" />
        </mxCell>
        <mxCell id="r4Jw3N0_tGz9ioQyAZuH-18" style="edgeStyle=orthogonalEdgeStyle;rounded=0;orthogonalLoop=1;jettySize=auto;html=1;entryX=0;entryY=0.5;entryDx=0;entryDy=0;" edge="1" parent="1" source="r4Jw3N0_tGz9ioQyAZuH-2" target="r4Jw3N0_tGz9ioQyAZuH-5">
          <mxGeometry relative="1" as="geometry" />
        </mxCell>
        <mxCell id="r4Jw3N0_tGz9ioQyAZuH-19" style="edgeStyle=orthogonalEdgeStyle;rounded=0;orthogonalLoop=1;jettySize=auto;html=1;entryX=0;entryY=0.5;entryDx=0;entryDy=0;" edge="1" parent="1" source="r4Jw3N0_tGz9ioQyAZuH-2" target="r4Jw3N0_tGz9ioQyAZuH-4">
          <mxGeometry relative="1" as="geometry" />
        </mxCell>
        <mxCell id="r4Jw3N0_tGz9ioQyAZuH-2" value="2" style="rounded=1;whiteSpace=wrap;html=1;" vertex="1" parent="1">
          <mxGeometry x="20" y="400" width="120" height="60" as="geometry" />
        </mxCell>
        <mxCell id="r4Jw3N0_tGz9ioQyAZuH-21" style="edgeStyle=orthogonalEdgeStyle;rounded=0;orthogonalLoop=1;jettySize=auto;html=1;" edge="1" parent="1" source="r4Jw3N0_tGz9ioQyAZuH-4" target="r4Jw3N0_tGz9ioQyAZuH-8">
          <mxGeometry relative="1" as="geometry" />
        </mxCell>
        <mxCell id="r4Jw3N0_tGz9ioQyAZuH-4" value="9" style="rounded=1;whiteSpace=wrap;html=1;" vertex="1" parent="1">
          <mxGeometry x="280" y="30" width="120" height="60" as="geometry" />
        </mxCell>
        <mxCell id="r4Jw3N0_tGz9ioQyAZuH-20" style="edgeStyle=orthogonalEdgeStyle;rounded=0;orthogonalLoop=1;jettySize=auto;html=1;" edge="1" parent="1" source="r4Jw3N0_tGz9ioQyAZuH-5" target="r4Jw3N0_tGz9ioQyAZuH-9">
          <mxGeometry relative="1" as="geometry" />
        </mxCell>
        <mxCell id="r4Jw3N0_tGz9ioQyAZuH-5" value="7" style="rounded=1;whiteSpace=wrap;html=1;" vertex="1" parent="1">
          <mxGeometry x="280" y="170" width="120" height="60" as="geometry" />
        </mxCell>
        <mxCell id="r4Jw3N0_tGz9ioQyAZuH-17" style="edgeStyle=orthogonalEdgeStyle;rounded=0;orthogonalLoop=1;jettySize=auto;html=1;" edge="1" parent="1" source="r4Jw3N0_tGz9ioQyAZuH-6" target="r4Jw3N0_tGz9ioQyAZuH-10">
          <mxGeometry relative="1" as="geometry" />
        </mxCell>
        <mxCell id="r4Jw3N0_tGz9ioQyAZuH-6" value="5" style="rounded=1;whiteSpace=wrap;html=1;" vertex="1" parent="1">
          <mxGeometry x="280" y="340" width="120" height="60" as="geometry" />
        </mxCell>
        <mxCell id="r4Jw3N0_tGz9ioQyAZuH-15" style="edgeStyle=orthogonalEdgeStyle;rounded=0;orthogonalLoop=1;jettySize=auto;html=1;" edge="1" parent="1" source="r4Jw3N0_tGz9ioQyAZuH-7" target="r4Jw3N0_tGz9ioQyAZuH-11">
          <mxGeometry relative="1" as="geometry" />
        </mxCell>
        <mxCell id="r4Jw3N0_tGz9ioQyAZuH-7" value="3" style="rounded=1;whiteSpace=wrap;html=1;" vertex="1" parent="1">
          <mxGeometry x="280" y="500" width="120" height="60" as="geometry" />
        </mxCell>
        <mxCell id="r4Jw3N0_tGz9ioQyAZuH-8" value="10" style="rounded=1;whiteSpace=wrap;html=1;" vertex="1" parent="1">
          <mxGeometry x="540" y="30" width="120" height="60" as="geometry" />
        </mxCell>
        <mxCell id="r4Jw3N0_tGz9ioQyAZuH-9" value="8" style="rounded=1;whiteSpace=wrap;html=1;" vertex="1" parent="1">
          <mxGeometry x="540" y="170" width="120" height="60" as="geometry" />
        </mxCell>
        <mxCell id="r4Jw3N0_tGz9ioQyAZuH-10" value="6" style="rounded=1;whiteSpace=wrap;html=1;" vertex="1" parent="1">
          <mxGeometry x="540" y="340" width="120" height="60" as="geometry" />
        </mxCell>
        <mxCell id="r4Jw3N0_tGz9ioQyAZuH-11" value="4" style="rounded=1;whiteSpace=wrap;html=1;" vertex="1" parent="1">
          <mxGeometry x="540" y="500" width="120" height="60" as="geometry" />
        </mxCell>
      </root>
    </mxGraphModel>
  </diagram>
</mxfile>
